<svg width="24" height="24" viewBox="0 0 24 24" fill="none" xmlns="http://www.w3.org/2000/svg">
  <path d="M10.55 3.3C10.82 2.43 12.18 2.43 12.45 3.3L12.82 4.48C13.01 5.08 13.68 5.39 14.26 5.13L15.39 4.63C16.22 4.26 17.18 5.22 16.81 6.05L16.31 7.18C16.05 7.76 16.36 8.43 16.96 8.62L18.14 8.99C19.01 9.26 19.01 10.62 18.14 10.89L16.96 11.26C16.36 11.45 16.05 12.12 16.31 12.7L16.81 13.83C17.18 14.66 16.22 15.62 15.39 15.25L14.26 14.75C13.68 14.49 13.01 14.8 12.82 15.4L12.45 16.58C12.18 17.45 10.82 17.45 10.55 16.58L10.18 15.4C9.99 14.8 9.32 14.49 8.74 14.75L7.61 15.25C6.78 15.62 5.82 14.66 6.19 13.83L6.69 12.7C6.95 12.12 6.64 11.45 6.04 11.26L4.86 10.89C3.99 10.62 3.99 9.26 4.86 8.99L6.04 8.62C6.64 8.43 6.95 7.76 6.69 7.18L6.19 6.05C5.82 5.22 6.78 4.26 7.61 4.63L8.74 5.13C9.32 5.39 9.99 5.08 10.18 4.48L10.55 3.3Z" stroke="#81A1C1" stroke-width="1.7" stroke-linejoin="round"/>
  <circle cx="11.5" cy="9.94" r="2.45" stroke="#81A1C1" stroke-width="1.7"/>
</svg>
