<svg width="1024" height="1024" viewBox="0 0 1024 1024" fill="none" xmlns="http://www.w3.org/2000/svg">
    <defs>
        <linearGradient id="bg" x1="160" y1="116" x2="864" y2="908" gradientUnits="userSpaceOnUse">
            <stop stop-color="#222A44"/>
            <stop offset="0.42" stop-color="#301D55"/>
            <stop offset="1" stop-color="#0B1020"/>
        </linearGradient>
        <linearGradient id="facetA" x1="270" y1="124" x2="612" y2="614" gradientUnits="userSpaceOnUse">
            <stop stop-color="#8B5CF6"/>
            <stop offset="1" stop-color="#4B2E83"/>
        </linearGradient>
        <linearGradient id="facetB" x1="660" y1="174" x2="454" y2="880" gradientUnits="userSpaceOnUse">
            <stop stop-color="#2E80F2"/>
            <stop offset="1" stop-color="#172554"/>
        </linearGradient>
        <linearGradient id="facetC" x1="194" y1="402" x2="782" y2="918" gradientUnits="userSpaceOnUse">
            <stop stop-color="#1F2A44"/>
            <stop offset="1" stop-color="#090D19"/>
        </linearGradient>
        <linearGradient id="qStroke" x1="324" y1="272" x2="732" y2="760" gradientUnits="userSpaceOnUse">
            <stop stop-color="#FFFFFF"/>
            <stop offset="0.48" stop-color="#C7DCFF"/>
            <stop offset="1" stop-color="#2E80F2"/>
        </linearGradient>
        <filter id="shadow" x="80" y="80" width="864" height="864" filterUnits="userSpaceOnUse" color-interpolation-filters="sRGB">
            <feDropShadow dx="0" dy="28" stdDeviation="34" flood-color="#020617" flood-opacity="0.45"/>
        </filter>
    </defs>
    <rect width="1024" height="1024" rx="228" fill="url(#bg)"/>
    <g filter="url(#shadow)">
        <path d="M512 112L772 230L900 500L782 792L512 912L242 792L124 500L252 230L512 112Z" fill="#101525"/>
        <path d="M512 112L252 230L346 484L512 112Z" fill="url(#facetA)"/>
        <path d="M512 112L346 484L512 438L678 484L772 230L512 112Z" fill="#3F2B72"/>
        <path d="M772 230L678 484L900 500L772 230Z" fill="#2557B8"/>
        <path d="M124 500L346 484L242 792L124 500Z" fill="#18223A"/>
        <path d="M346 484L512 438L512 912L242 792L346 484Z" fill="url(#facetC)"/>
        <path d="M512 438L678 484L782 792L512 912L512 438Z" fill="url(#facetB)"/>
        <path d="M678 484L900 500L782 792L678 484Z" fill="#102B63"/>
        <path d="M252 230L124 500L346 484L252 230Z" fill="#211B3B"/>
        <path d="M346 484L512 438L678 484L512 552L346 484Z" fill="#121827" fill-opacity="0.42"/>
        <path d="M512 176L574 396L512 438L450 396L512 176Z" fill="#A78BFA" fill-opacity="0.38"/>
        <path d="M700 292L678 484L834 500L700 292Z" fill="#60A5FA" fill-opacity="0.28"/>
    </g>
    <path d="M522 700C627.486 700 713 614.486 713 509C713 403.514 627.486 318 522 318C416.514 318 331 403.514 331 509C331 614.486 416.514 700 522 700Z" stroke="url(#qStroke)" stroke-width="82" stroke-linecap="round" stroke-linejoin="round"/>
    <path d="M636 638L752 754" stroke="url(#qStroke)" stroke-width="88" stroke-linecap="round" stroke-linejoin="round"/>
    <path d="M389 372C424 335 474 314 532 314" stroke="white" stroke-width="28" stroke-linecap="round" opacity="0.42"/>
</svg>
